<?xml version="1.0" encoding="UTF-8" standalone="no"?>
<!-- Created with Inkscape (http://www.inkscape.org/) -->

<svg
   xmlns:dc="http://purl.org/dc/elements/1.1/"
   xmlns:cc="http://creativecommons.org/ns#"
   xmlns:rdf="http://www.w3.org/1999/02/22-rdf-syntax-ns#"
   xmlns:svg="http://www.w3.org/2000/svg"
   xmlns="http://www.w3.org/2000/svg"
   xmlns:sodipodi="http://sodipodi.sourceforge.net/DTD/sodipodi-0.dtd"
   xmlns:inkscape="http://www.inkscape.org/namespaces/inkscape"
   width="42.14286"
   height="43.264511"
   id="svg2"
   version="1.1"
   inkscape:version="0.48.2 r9819"
   sodipodi:docname="soldier.svg"
   inkscape:export-filename="/Users/deepansubramani/Projects/GameSandbox/Defence/Defence/Resources/soldier.png"
   inkscape:export-xdpi="71.830002"
   inkscape:export-ydpi="71.830002">
  <defs
     id="defs4">
    <marker
       inkscape:stockid="Arrow1Lstart"
       orient="auto"
       refY="0"
       refX="0"
       id="Arrow1Lstart"
       style="overflow:visible">
      <path
         id="path3784"
         d="M 0,0 5,-5 -12.5,0 5,5 0,0 z"
         style="fill-rule:evenodd;stroke:#000000;stroke-width:1pt;marker-start:none"
         transform="matrix(0.8,0,0,0.8,10,0)"
         inkscape:connector-curvature="0" />
    </marker>
    <filter
       inkscape:collect="always"
       id="filter4246"
       x="-0.14661504"
       width="1.2932301"
       y="-0.15883297"
       height="1.3176659"
       color-interpolation-filters="sRGB">
      <feGaussianBlur
         inkscape:collect="always"
         stdDeviation="1.1345212"
         id="feGaussianBlur4248" />
    </filter>
  </defs>
  <sodipodi:namedview
     id="base"
     pagecolor="#ffffff"
     bordercolor="#666666"
     borderopacity="1.0"
     inkscape:pageopacity="0.0"
     inkscape:pageshadow="2"
     inkscape:zoom="5.6"
     inkscape:cx="17.50242"
     inkscape:cy="8.1638683"
     inkscape:document-units="px"
     inkscape:current-layer="layer1"
     showgrid="false"
     inkscape:snap-bbox="false"
     inkscape:bbox-paths="false"
     inkscape:bbox-nodes="true"
     fit-margin-top="0"
     fit-margin-left="0"
     fit-margin-right="0"
     fit-margin-bottom="0"
     inkscape:window-width="1268"
     inkscape:window-height="914"
     inkscape:window-x="52"
     inkscape:window-y="0"
     inkscape:window-maximized="0" />
  <metadata
     id="metadata7">
    <rdf:RDF>
      <cc:Work
         rdf:about="">
        <dc:format>image/svg+xml</dc:format>
        <dc:type
           rdf:resource="http://purl.org/dc/dcmitype/StillImage" />
        <dc:title></dc:title>
      </cc:Work>
    </rdf:RDF>
  </metadata>
  <g
     inkscape:label="Layer 1"
     inkscape:groupmode="layer"
     id="layer1"
     transform="translate(-380.71426,-333.38339)">
    <g
       id="g4288"
       transform="matrix(0.05468497,1.2073418,-1.2633707,0.05225975,834.05753,-140.74972)">
      <path
         transform="matrix(0.13770493,0,0,0.08412811,338.51168,331.01753)"
         d="m 552.85713,424.86218 c 0,52.26981 -48.76898,94.64286 -108.92857,94.64286 -60.15959,0 -108.92858,-42.37305 -108.92858,-94.64286 0,-52.26981 48.76899,-94.64286 108.92858,-94.64286 60.15959,0 108.92857,42.37305 108.92857,94.64286 z"
         sodipodi:ry="94.64286"
         sodipodi:rx="108.92857"
         sodipodi:cy="424.86218"
         sodipodi:cx="443.92856"
         id="path3763"
         style="fill:#d7d1d1;fill-opacity:0.89380535;fill-rule:nonzero;stroke:none"
         sodipodi:type="arc" />
      <path
         transform="matrix(0.82223201,0,0,0.85927406,177.22439,37.178442)"
         d="m 279.28571,382.36218 c 0,4.73387 -4.15735,8.57143 -9.28571,8.57143 -5.12836,0 -9.28571,-3.83756 -9.28571,-8.57143 0,-4.73387 4.15735,-8.57143 9.28571,-8.57143 5.12836,0 9.28571,3.83756 9.28571,8.57143 z"
         sodipodi:ry="8.5714283"
         sodipodi:rx="9.2857141"
         sodipodi:cy="382.36218"
         sodipodi:cx="270"
         id="path3765"
         style="fill:#241818;fill-opacity:0.89380535;fill-rule:nonzero;stroke:none;filter:url(#filter4246)"
         sodipodi:type="arc" />
      <path
         sodipodi:nodetypes="ccsssscscc"
         inkscape:connector-curvature="0"
         id="rect4225"
         d="m 407.95223,363.03557 c -0.03,-6.23619 -0.06,-12.47237 -0.09,-18.70857 -3.6e-4,-0.0743 0.051,-0.13401 0.11512,-0.13406 l 2.21436,-0.002 c 0.0642,-5e-5 0.11605,0.0597 0.11642,0.13388 l 0.09,17.87033 c 3.7e-4,0.0743 -2.44589,-1.67466 -2.44589,-1.67466 l -0.0905,-5.49442 c -8.2e-4,-0.0743 0.19437,4.01189 0.0906,8.0092 z"
         style="fill:#241818;fill-opacity:0.89380535;fill-rule:nonzero;stroke:none" />
      <rect
         style="fill:#241818;fill-opacity:0.89380535;fill-rule:nonzero;stroke:none"
         id="rect4231"
         width="4.9683404"
         height="3.2460809"
         x="-344.4776"
         y="399.06772"
         ry="0.15364532"
         transform="matrix(-0.0243749,-0.99970289,0.99999999,-1.5098169e-4,0,0)" />
    </g>
  </g>
</svg>
